HIERARCHY
ROOT Hips
{
	OFFSET 0.000000 100.481300 0.000000
	CHANNELS 6 Xposition Yposition Zposition Xrotation Yrotation Zrotation 
	JOINT Spine
	{
		OFFSET -0.279200 12.230698 -2.892100
		CHANNELS 3 Xrotation Yrotation Zrotation
		JOINT Spine1
		{
			OFFSET -0.232667 10.192268 -1.242267
			CHANNELS 3 Xrotation Yrotation Zrotation
			JOINT Spine1_split
			{
				OFFSET -0.232667 10.192268 -1.242267
				CHANNELS 3 Xrotation Yrotation Zrotation
				JOINT Spine2
				{
					OFFSET -0.232667 10.192268 -1.242267
					CHANNELS 3 Xrotation Yrotation Zrotation
					JOINT Neck
					{
						OFFSET -0.418800 17.814194 8.416900
						CHANNELS 3 Xrotation Yrotation Zrotation
						JOINT Head
						{
							OFFSET 0.000000 7.031097 3.806800
							CHANNELS 3 Xrotation Yrotation Zrotation
							JOINT HeadTop_End
							{
								OFFSET 0.000000 24.646606 12.978600
								CHANNELS 3 Xrotation Yrotation Zrotation
								End Site
								{
									OFFSET 0.000000 0.000000 0.000000
								}
							}
						}
					}
					JOINT LeftShoulder
					{
						OFFSET 8.476499 7.247704 -3.868750
						CHANNELS 3 Xrotation Yrotation Zrotation
						JOINT LeftShoulder_split
						{
							OFFSET 8.476499 7.247704 -3.868750
							CHANNELS 3 Xrotation Yrotation Zrotation
							JOINT LeftArm
							{
								OFFSET 9.308998 -2.777710 0.208600
								CHANNELS 3 Xrotation Yrotation Zrotation
								JOINT LeftForeArm
								{
									OFFSET 29.972298 0.000000 0.000000
									CHANNELS 3 Xrotation Yrotation Zrotation
									JOINT LeftHand
									{
										OFFSET 26.026505 0.000000 0.000000
										CHANNELS 3 Xrotation Yrotation Zrotation
										JOINT LeftHandThumb1
										{
											OFFSET 12.240501 -7.147949 9.207150
											CHANNELS 3 Xrotation Yrotation Zrotation
											JOINT LeftHandThumb2
											{
												OFFSET 4.138618 -2.389435 2.389433
												CHANNELS 3 Xrotation Yrotation Zrotation
												JOINT LeftHandThumb3
												{
													OFFSET 2.726913 -1.574387 1.574386
													CHANNELS 3 Xrotation Yrotation Zrotation
													JOINT LeftHandThumb4
													{
														OFFSET 3.941010 -2.275345 2.275342
														CHANNELS 3 Xrotation Yrotation Zrotation
														End Site
														{
															OFFSET 0.000000 0.000000 0.000000
														}
													}
												}
											}
										}
										JOINT LeftHandIndex1
										{
											OFFSET 24.424698 -1.985611 5.953459
											CHANNELS 3 Xrotation Yrotation Zrotation
											JOINT LeftHandIndex2
											{
												OFFSET 6.426697 0.000000 0.000000
												CHANNELS 3 Xrotation Yrotation Zrotation
												JOINT LeftHandIndex3
												{
													OFFSET 5.337898 0.000000 0.000000
													CHANNELS 3 Xrotation Yrotation Zrotation
													JOINT LeftHandIndex4
													{
														OFFSET 4.409401 0.000000 0.000000
														CHANNELS 3 Xrotation Yrotation Zrotation
														End Site
														{
															OFFSET 0.000000 0.000000 0.000000
														}
													}
												}
											}
										}
										JOINT LeftHandMiddle1
										{
											OFFSET 23.810104 0.000000 0.000000
											CHANNELS 3 Xrotation Yrotation Zrotation
											JOINT LeftHandMiddle2
											{
												OFFSET 7.176498 0.000000 0.000000
												CHANNELS 3 Xrotation Yrotation Zrotation
												JOINT LeftHandMiddle3
												{
													OFFSET 6.774902 0.000000 0.000000
													CHANNELS 3 Xrotation Yrotation Zrotation
													JOINT LeftHandMiddle4
													{
														OFFSET 5.403328 0.000000 0.000000
														CHANNELS 3 Xrotation Yrotation Zrotation
														End Site
														{
															OFFSET 0.000000 0.000000 0.000000
														}
													}
												}
											}
										}
										JOINT LeftHandRing1
										{
											OFFSET 22.908401 -0.839279 -6.020567
											CHANNELS 3 Xrotation Yrotation Zrotation
											JOINT LeftHandRing2
											{
												OFFSET 6.337502 0.000000 0.000000
												CHANNELS 3 Xrotation Yrotation Zrotation
												JOINT LeftHandRing3
												{
													OFFSET 5.779297 0.000000 0.000000
													CHANNELS 3 Xrotation Yrotation Zrotation
													JOINT LeftHandRing4
													{
														OFFSET 4.965698 0.000000 0.000000
														CHANNELS 3 Xrotation Yrotation Zrotation
														End Site
														{
															OFFSET 0.000000 0.000000 0.000000
														}
													}
												}
											}
										}
										JOINT LeftHandPinky1
										{
											OFFSET 20.037003 -1.530319 -10.950146
											CHANNELS 3 Xrotation Yrotation Zrotation
											JOINT LeftHandPinky2
											{
												OFFSET 5.254700 0.000000 0.000000
												CHANNELS 3 Xrotation Yrotation Zrotation
												JOINT LeftHandPinky3
												{
													OFFSET 4.810204 0.000000 0.000000
													CHANNELS 3 Xrotation Yrotation Zrotation
													JOINT LeftHandPinky4
													{
														OFFSET 3.647202 0.000000 0.000000
														CHANNELS 3 Xrotation Yrotation Zrotation
														End Site
														{
															OFFSET 0.000000 0.000000 0.000000
														}
													}
												}
											}
										}
									}
								}
							}
						}
					}
					JOINT RightShoulder
					{
						OFFSET -7.570500 7.247704 -3.868750
						CHANNELS 3 Xrotation Yrotation Zrotation
						JOINT RightShoulder_split
						{
							OFFSET -7.570500 7.247704 -3.868750
							CHANNELS 3 Xrotation Yrotation Zrotation
							JOINT RightArm
							{
								OFFSET -9.308998 -2.777710 0.208500
								CHANNELS 3 Xrotation Yrotation Zrotation
								JOINT RightForeArm
								{
									OFFSET -29.972300 0.000000 0.000000
									CHANNELS 3 Xrotation Yrotation Zrotation
									JOINT RightHand
									{
										OFFSET -26.026505 0.000000 0.000000
										CHANNELS 3 Xrotation Yrotation Zrotation
										JOINT RightHandThumb1
										{
											OFFSET -12.240601 -7.148026 9.207092
											CHANNELS 3 Xrotation Yrotation Zrotation
											JOINT RightHandThumb2
											{
												OFFSET -4.138618 -2.389435 2.389433
												CHANNELS 3 Xrotation Yrotation Zrotation
												JOINT RightHandThumb3
												{
													OFFSET -2.726974 -1.574417 1.574421
													CHANNELS 3 Xrotation Yrotation Zrotation
													JOINT RightHandThumb4
													{
														OFFSET -3.941010 -2.275345 2.275343
														CHANNELS 3 Xrotation Yrotation Zrotation
														End Site
														{
															OFFSET 0.000000 0.000000 0.000000
														}
													}
												}
											}
										}
										JOINT RightHandIndex1
										{
											OFFSET -24.424698 -1.985657 5.953444
											CHANNELS 3 Xrotation Yrotation Zrotation
											JOINT RightHandIndex2
											{
												OFFSET -6.426697 0.000000 0.000000
												CHANNELS 3 Xrotation Yrotation Zrotation
												JOINT RightHandIndex3
												{
													OFFSET -5.337898 0.000000 0.000000
													CHANNELS 3 Xrotation Yrotation Zrotation
													JOINT RightHandIndex4
													{
														OFFSET -4.409401 0.000000 0.000000
														CHANNELS 3 Xrotation Yrotation Zrotation
														End Site
														{
															OFFSET 0.000000 0.000000 0.000000
														}
													}
												}
											}
										}
										JOINT RightHandMiddle1
										{
											OFFSET -23.810097 0.000000 0.000000
											CHANNELS 3 Xrotation Yrotation Zrotation
											JOINT RightHandMiddle2
											{
												OFFSET -7.176498 0.000000 0.000000
												CHANNELS 3 Xrotation Yrotation Zrotation
												JOINT RightHandMiddle3
												{
													OFFSET -6.774902 0.000000 0.000000
													CHANNELS 3 Xrotation Yrotation Zrotation
													JOINT RightHandMiddle4
													{
														OFFSET -5.403328 0.000000 0.000000
														CHANNELS 3 Xrotation Yrotation Zrotation
														End Site
														{
															OFFSET 0.000000 0.000000 0.000000
														}
													}
												}
											}
										}
										JOINT RightHandRing1
										{
											OFFSET -22.908302 -0.839325 -6.020576
											CHANNELS 3 Xrotation Yrotation Zrotation
											JOINT RightHandRing2
											{
												OFFSET -6.337502 0.000000 0.000000
												CHANNELS 3 Xrotation Yrotation Zrotation
												JOINT RightHandRing3
												{
													OFFSET -5.779297 0.000000 0.000000
													CHANNELS 3 Xrotation Yrotation Zrotation
													JOINT RightHandRing4
													{
														OFFSET -4.965698 0.000000 0.000000
														CHANNELS 3 Xrotation Yrotation Zrotation
														End Site
														{
															OFFSET 0.000000 0.000000 0.000000
														}
													}
												}
											}
										}
										JOINT RightHandPinky1
										{
											OFFSET -20.037003 -1.530334 -10.950259
											CHANNELS 3 Xrotation Yrotation Zrotation
											JOINT RightHandPinky2
											{
												OFFSET -5.254700 0.000000 0.000000
												CHANNELS 3 Xrotation Yrotation Zrotation
												JOINT RightHandPinky3
												{
													OFFSET -4.810204 0.000000 0.000000
													CHANNELS 3 Xrotation Yrotation Zrotation
													JOINT RightHandPinky4
													{
														OFFSET -3.647202 0.000000 0.000000
														CHANNELS 3 Xrotation Yrotation Zrotation
														End Site
														{
															OFFSET 0.000000 0.000000 0.000000
														}
													}
												}
											}
										}
									}
								}
							}
						}
					}
				}
			}
		}
	}
	JOINT LeftUpLeg
	{
		OFFSET 15.427100 -6.655098 0.678600
		CHANNELS 3 Xrotation Yrotation Zrotation
		JOINT LeftLeg
		{
			OFFSET 4.081073 -39.591068 13.024000
			CHANNELS 3 Xrotation Yrotation Zrotation
			JOINT LeftFoot
			{
				OFFSET -4.081074 -37.707932 -15.979700
				CHANNELS 3 Xrotation Yrotation Zrotation
				JOINT LeftToeBase
				{
					OFFSET 5.346399 -15.068900 20.645000
					CHANNELS 3 Xrotation Yrotation Zrotation
					JOINT LeftToe_End
					{
						OFFSET 2.754700 0.931300 11.300900
						CHANNELS 3 Xrotation Yrotation Zrotation
						End Site
						{
							OFFSET 0.000000 0.000000 0.000000
						}
					}
				}
			}
		}
	}
	JOINT RightUpLeg
	{
		OFFSET -15.569500 -6.655098 0.678600
		CHANNELS 3 Xrotation Yrotation Zrotation
		JOINT RightLeg
		{
			OFFSET -4.081825 -39.591045 13.023800
			CHANNELS 3 Xrotation Yrotation Zrotation
			JOINT RightFoot
			{
				OFFSET 4.081824 -37.707954 -15.979600
				CHANNELS 3 Xrotation Yrotation Zrotation
				JOINT RightToeBase
				{
					OFFSET -5.346400 -15.068900 20.645000
					CHANNELS 3 Xrotation Yrotation Zrotation
					JOINT RightToe_End
					{
						OFFSET -2.754700 0.931300 11.300900
						CHANNELS 3 Xrotation Yrotation Zrotation
						End Site
						{
							OFFSET 0.000000 0.000000 0.000000
						}
					}
				}
			}
		}
	}
}
MOTION
Frames: 4
Frame Time: 0.016667
0.214692 81.299095 -0.493787 -1.737150 -17.105613 -1.916236 3.883667 2.450486 -0.397757 2.929112 2.056186 -0.138334 0.000000 0.000000 0.000000 2.894091 2.112997 -0.161224 1.137081 0.245399 5.249919 -1.998750 7.430614 1.905180 0.000000 -0.000000 0.000000 1.375475 -4.867617 21.431197 0.000000 0.000000 0.000000 -66.234270 -43.614859 -65.822028 -0.000005 -37.698386 -0.000005 -66.348587 -13.253374 -9.215214 22.600980 -28.107355 -14.151477 29.406830 28.726515 -29.411754 9.113577 14.378733 -9.922568 0.000000 -0.000001 0.000001 0.797682 3.221926 -27.804725 0.799579 3.225533 -27.838610 0.202660 1.661525 -13.908050 -0.000001 0.000000 0.000001 0.796765 3.220238 -27.788693 0.800501 3.227231 -27.854645 0.202639 1.661528 -13.908048 0.000000 0.000000 0.000000 0.797682 3.221926 -27.804725 0.799579 3.225535 -27.838613 0.202653 1.661526 -13.908046 0.000001 -0.000001 -0.000004 2.684948 6.814131 -27.459474 0.809056 -0.835560 -28.291861 0.202649 1.661528 -13.908046 -0.000001 -0.000000 -0.000000 0.445410 -0.777911 -3.588726 0.000000 0.000000 0.000000 -96.770646 65.301151 91.341732 -0.000011 28.227464 0.000017 -31.535677 -1.128094 -3.934984 40.606602 -3.110533 26.124217 -37.849507 -44.265069 -46.874987 -12.282875 -22.415221 -17.633356 -0.000003 0.000003 0.000001 3.635335 -6.110980 61.464449 7.728596 -6.904470 96.464462 2.305160 -5.174790 47.998741 -0.000004 -0.000002 0.000000 3.635335 -6.110980 61.464449 7.728600 -6.904472 96.464462 2.305157 -5.174785 47.998738 0.000004 0.000001 -0.000002 3.635320 -6.110986 61.464456 7.728608 -6.904483 96.464442 2.305157 -5.174789 47.998734 -0.000000 0.000002 -0.000002 3.635335 -6.110980 61.464449 7.728610 -6.904478 96.464462 2.305153 -5.174784 47.998741 0.000001 0.000001 -0.000001 -36.065643 17.177376 15.959468 48.874911 0.149074 8.085374 -13.580794 1.266086 -9.108331 -0.000043 0.000003 -0.000003 0.000000 0.000000 0.000000 -28.851453 -22.428798 -15.772577 47.646894 -1.329483 -9.583882 -18.643951 -3.090515 13.496058 -0.044156 0.000027 -0.000000 0.000000 0.000000 0.000000 
0.220741 81.326363 -0.497167 -1.681472 -17.066344 -1.936537 3.848082 2.431468 -0.411228 2.899332 2.043579 -0.147449 0.000000 0.000000 0.000000 2.864489 2.099783 -0.170384 1.085838 0.256950 5.236188 -1.804759 7.498501 2.008298 -0.000000 -0.000000 0.000000 1.287686 -4.591924 21.372328 0.000000 0.000000 0.000000 -66.225904 -43.832777 -66.089546 -0.000001 -37.650089 -0.000001 -66.346299 -13.265066 -9.206512 22.600961 -28.107337 -14.151479 29.406833 28.726505 -29.411771 9.113584 14.378711 -9.922562 0.000000 -0.000000 -0.000001 0.797646 3.221954 -27.804723 0.799605 3.225525 -27.838618 0.202663 1.661526 -13.908050 0.000001 0.000000 -0.000001 0.796765 3.220235 -27.788688 0.800499 3.227225 -27.854645 0.202665 1.661529 -13.908048 0.000000 -0.000001 -0.000001 0.797646 3.221954 -27.804720 0.799604 3.225526 -27.838615 0.202670 1.661524 -13.908048 0.000000 0.000001 0.000000 2.684948 6.814128 -27.459474 0.809052 -0.835559 -28.291866 0.202676 1.661525 -13.908050 -0.000002 -0.000000 -0.000000 0.432492 -0.830615 -3.627957 0.000000 0.000000 0.000000 -97.091692 65.466175 91.848368 0.000008 28.156128 -0.000003 -31.844637 -1.022885 -3.997955 40.606602 -3.110533 26.124219 -37.849500 -44.265059 -46.874994 -12.282874 -22.415219 -17.633354 -0.000002 0.000001 0.000000 3.635335 -6.110981 61.464456 7.728597 -6.904471 96.464462 2.305164 -5.174790 47.998731 -0.000000 0.000000 -0.000000 3.635336 -6.110981 61.464456 7.728598 -6.904470 96.464462 2.305158 -5.174785 47.998738 -0.000002 0.000001 -0.000001 3.635323 -6.110987 61.464463 7.728609 -6.904488 96.464442 2.305158 -5.174790 47.998738 -0.000005 -0.000001 -0.000000 3.635335 -6.110981 61.464456 7.728609 -6.904480 96.464462 2.305154 -5.174783 47.998738 -0.000000 0.000001 -0.000001 -36.165005 17.235494 15.922498 48.851709 0.116244 8.217641 -13.547578 1.258534 -9.114723 -0.000043 0.000003 -0.000003 -0.000000 -0.000000 0.000000 -28.749899 -22.236562 -15.645361 47.555756 -1.544021 -9.570007 -18.608161 -3.132223 13.634801 -0.042980 -0.000007 -0.000003 0.000000 -0.000000 0.000000 
0.226348 81.353622 -0.504333 -1.627919 -17.023102 -1.951415 3.801698 2.403453 -0.431714 2.860569 2.025398 -0.161203 0.000000 0.000000 0.000000 2.825896 2.080955 -0.184224 1.012362 0.275948 5.218360 -1.628339 7.575836 2.118156 0.000000 0.000000 -0.000000 1.196432 -4.307695 21.316483 0.000000 0.000000 0.000000 -66.220296 -44.104693 -66.348758 0.000006 -37.562338 0.000012 -66.391365 -13.293670 -9.237438 22.600975 -28.107350 -14.151479 29.406833 28.726495 -29.411768 9.113572 14.378703 -9.922562 0.000000 0.000002 0.000001 0.797675 3.221933 -27.804739 0.799606 3.225519 -27.838615 0.202646 1.661530 -13.908050 -0.000000 -0.000000 -0.000001 0.796772 3.220228 -27.788693 0.800505 3.227231 -27.854654 0.202666 1.661528 -13.908053 0.000001 0.000000 -0.000001 0.797675 3.221933 -27.804737 0.799606 3.225521 -27.838613 0.202648 1.661528 -13.908049 0.000001 -0.000000 -0.000002 2.684957 6.814123 -27.459480 0.809040 -0.835554 -28.291880 0.202648 1.661528 -13.908042 -0.000001 -0.000000 0.000002 0.420647 -0.879268 -3.679279 0.000000 0.000000 0.000000 -97.395690 65.635352 92.333373 0.000006 28.079222 -0.000006 -32.174853 -0.927899 -4.091890 40.606605 -3.110532 26.124213 -37.849504 -44.265063 -46.874991 -12.282872 -22.415221 -17.633359 0.000003 -0.000000 0.000000 3.635333 -6.110981 61.464456 7.728595 -6.904469 96.464462 2.305163 -5.174790 47.998734 -0.000001 0.000001 -0.000001 3.635335 -6.110981 61.464456 7.728600 -6.904470 96.464462 2.305153 -5.174786 47.998734 -0.000001 0.000001 -0.000001 3.635325 -6.110986 61.464456 7.728607 -6.904485 96.464442 2.305160 -5.174787 47.998734 0.000001 0.000002 -0.000002 3.635334 -6.110981 61.464456 7.728609 -6.904476 96.464456 2.305157 -5.174783 47.998738 0.000002 0.000000 -0.000001 -36.261679 17.293819 15.871895 48.824412 0.087223 8.359223 -13.508331 1.252070 -9.125840 -0.000043 0.000003 -0.000003 -0.000000 0.000000 -0.000000 -28.649894 -22.036765 -15.524486 47.468360 -1.774399 -9.554851 -18.572428 -3.174438 13.778699 -0.041696 -0.000000 0.000001 -0.000000 -0.000000 0.000000 
0.231879 81.380974 -0.512908 -1.579689 -16.975440 -1.968425 3.753223 2.376825 -0.447142 2.820242 2.007301 -0.173255 0.000000 0.000000 0.000000 2.785799 2.062074 -0.196305 0.943598 0.291474 5.199658 -1.444417 7.647644 2.241821 -0.000000 0.000000 -0.000001 1.103779 -4.021742 21.257203 0.000000 0.000000 0.000000 -66.219169 -44.417021 -66.594700 -0.000001 -37.422262 -0.000001 -66.480533 -13.341996 -9.321747 22.600980 -28.107366 -14.151476 29.406830 28.726515 -29.411768 9.113592 14.378721 -9.922566 0.000001 0.000001 -0.000001 0.797676 3.221923 -27.804734 0.799601 3.225520 -27.838613 0.202648 1.661524 -13.908045 0.000001 -0.000000 -0.000000 0.796765 3.220222 -27.788715 0.800530 3.227217 -27.854649 0.202647 1.661524 -13.908047 0.000000 0.000000 0.000001 0.797676 3.221923 -27.804734 0.799600 3.225523 -27.838610 0.202650 1.661523 -13.908045 0.000001 -0.000000 0.000001 2.684960 6.814110 -27.459485 0.809066 -0.835569 -28.291871 0.202632 1.661527 -13.908039 0.000001 -0.000000 0.000001 0.410451 -0.920575 -3.746361 0.000000 0.000000 0.000000 -97.673611 65.806591 92.793372 -0.000003 28.006409 0.000007 -32.526327 -0.855767 -4.208730 40.606598 -3.110533 26.124215 -37.849500 -44.265063 -46.874994 -12.282869 -22.415216 -17.633354 0.000000 -0.000003 -0.000001 3.635332 -6.110981 61.464456 7.728596 -6.904468 96.464462 2.305159 -5.174788 47.998738 0.000002 0.000003 -0.000001 3.635333 -6.110980 61.464456 7.728599 -6.904468 96.464462 2.305153 -5.174788 47.998734 -0.000002 -0.000002 0.000002 3.635321 -6.110985 61.464456 7.728608 -6.904487 96.464442 2.305158 -5.174789 47.998738 -0.000000 0.000000 -0.000000 3.635332 -6.110981 61.464456 7.728608 -6.904476 96.464462 2.305159 -5.174781 47.998741 -0.000001 0.000001 0.000000 -36.353617 17.347644 15.822309 48.796456 0.054435 8.494515 -13.466836 1.246024 -9.132733 -0.000043 0.000003 -0.000003 0.000000 0.000000 0.000000 -28.543757 -21.837810 -15.403806 47.380974 -2.010266 -9.539183 -18.536531 -3.218880 13.923891 -0.040246 0.000024 0.000001 0.000000 0.000000 0.000000 
